<svg width="512" height="512" xmlns="http://www.w3.org/2000/svg" xmlns:svg="http://www.w3.org/2000/svg" version="1.1">
    <g class="layer">
        <title>Layer 1</title>
        <g id="svgg">
            <path d="m223.77,220.7c-57.17,11.52 -90.94,78.75 -61.78,122.96c11.28,17.06 25.41,25.33 63.73,37.31c23.65,7.38 38.69,17.21 45.6,29.78l1.27,2.32l0.5,-2.48c2.1,-10.34 2.3,-33.96 0.44,-44.05c-4.56,-24.4 -13.42,-35.96 -43.17,-56.29c-4.4,-3.02 -8.69,-6.18 -9.54,-7.03c-1.56,-1.57 -1.56,-1.57 -1.02,0.77c1.37,6.06 4.75,11.06 12.94,19.17c15.41,15.22 21.57,25.44 24.87,41.3c1.43,6.76 1.22,7.18 -2.22,4.59c-1.43,-1.08 -6.12,-3.7 -10.43,-5.83c-7.14,-3.56 -12.45,-5.73 -32.55,-13.42c-29.69,-11.37 -40.22,-33.96 -29.91,-64.23c6.12,-18.05 27.8,-36.69 42.65,-36.69c0.33,0 0.58,2.67 0.58,5.91c0,18.78 8.44,32.51 28.96,47.15c23.79,16.98 33.94,43.95 32.76,87.17c-0.97,36.54 -9.54,51.82 -33.69,60.1c-23.71,8.15 -47.9,0.04 -67.4,-22.6c-7.59,-8.79 -10.21,-14.39 -4.19,-8.93c20.16,18.28 52.75,26.45 73.12,18.32c7.82,-3.12 7.84,-3.41 0.81,-10.13c-11.62,-11.11 -27.05,-19.48 -48,-26.1c-6.91,-2.17 -16.62,-5.23 -21.57,-6.78c-11.04,-3.47 -23.84,-9.82 -30.39,-15.12l-4.9,-3.95l0,10.01c0,43.04 23.79,76.5 64.02,90.04c42.15,14.19 88.41,-12.3 96.79,-55.44c1.45,-7.47 1.51,-11.75 1.33,-103.38l-0.19,-95.58l-41.18,-0.12c-37.03,-0.12 -41.88,0 -48.23,1.28m73.31,17.95c0.48,1.78 0.68,3.52 0.46,3.89c-0.23,0.37 0.23,0.85 1.02,1.05c3.11,0.81 2.66,14.68 -0.64,19.29c-0.85,1.2 -1.33,2.4 -1.08,2.67c1.1,1.08 -1.76,5.38 -6.1,9.12c-5.21,4.53 -6.87,7.2 -7.7,12.43l-0.58,3.6l-0.93,-2.25c-2.61,-6.35 -1.85,-18.22 1.8,-27.28c2.43,-6.12 0.41,-3.76 -2.88,3.33c-1.62,3.47 -2.55,6.95 -2.9,10.96c-0.52,5.62 -0.58,5.77 -1.54,3.52c-2.59,-6.1 0.66,-27.75 4.17,-27.75c0.5,0 1.89,-1.86 3.07,-4.12c1.18,-2.25 3.38,-5.81 4.87,-7.9c1.87,-2.63 2.72,-4.69 2.74,-6.66l0.02,-2.83l2.68,2.87c1.47,1.57 3.05,4.3 3.53,6.06m-49.48,25.37c0.5,0.58 2.99,1.82 5.56,2.75c2.57,0.95 4.87,2.05 5.14,2.46c0.25,0.41 1.33,0.74 2.41,0.74c3.98,0 9.69,4.59 12.43,10.03c1.8,3.54 0.81,4.2 -1.64,1.08c-1.08,-1.36 -2.55,-2.5 -3.28,-2.5c-1.02,0 -0.83,0.41 0.75,1.76c2.24,1.88 6.62,9 5.95,9.66c-0.21,0.21 -1.7,-0.52 -3.34,-1.61c-2.12,-1.43 -3.96,-1.99 -6.64,-1.99c-3.86,0 -8.63,-1.28 -8.63,-2.34c0,-0.33 -1.06,-1.03 -2.34,-1.57c-3.15,-1.3 -7.84,-6.62 -7.84,-8.87c0,-1.01 -0.39,-2.96 -0.87,-4.32c-1.47,-4.18 0.19,-7.88 2.34,-5.27m96.75,22.87c-5.73,2.81 -7.8,11.17 -4.19,16.98c7.9,12.76 27.28,1.28 20.25,-11.99c-3.03,-5.73 -10.08,-7.92 -16.06,-4.98" fill="#fafbfb" fill-rule="evenodd" id="path0"/>
            <path d="m235.93,11.64c-1.08,0.19 -5.75,0.91 -10.39,1.61c-4.63,0.68 -8.42,1.57 -8.42,1.94c0,0.37 -0.68,0.68 -1.49,0.68c-1.85,0 -12.09,3.1 -12.63,3.83c-0.21,0.29 -1.97,1.03 -3.92,1.65c-4.73,1.51 -21.16,9.97 -23.54,12.12c-0.71,0.64 -1.6,1.16 -2.01,1.16c-0.66,0.02 -7.51,4.82 -12.09,8.5c-1.08,0.87 -3.32,2.65 -5,3.95c-4.19,3.31 -23.23,22.87 -23.23,23.91c0,0.25 -1.41,2.32 -3.13,4.59c-1.72,2.3 -3.13,4.55 -3.13,5.07c0,0.5 -0.37,0.89 -0.81,0.89c-0.44,0 -1.2,0.97 -1.72,2.15c-0.52,1.2 -1.58,3.12 -2.39,4.3c-0.81,1.2 -1.18,2.17 -0.83,2.17c0.35,0 0.25,0.27 -0.23,0.58c-1.04,0.68 -5.89,10.9 -7.34,15.43c-0.56,1.72 -1.31,3.52 -1.68,3.99c-0.37,0.48 -0.44,1.08 -0.17,1.36c0.29,0.29 0.17,0.52 -0.27,0.52c-0.44,0 -1.41,2.73 -2.16,6.06c-0.75,3.33 -1.68,6.87 -2.1,7.88c-0.39,0.99 -0.52,2.13 -0.27,2.54c0.23,0.39 0.12,0.72 -0.25,0.72c-0.71,0 -2.07,8.56 -3.32,20.51c-1.02,10.01 0.1,9.49 -21.51,10.05c-19.69,0.52 -32.55,2.42 -36.1,5.36c-0.54,0.43 -2.45,1.32 -4.23,1.94c-1.8,0.64 -4.83,2.23 -6.74,3.54c-1.91,1.3 -3.82,2.38 -4.21,2.38c-0.41,0 -1.33,0.87 -2.05,1.94c-0.71,1.08 -1.66,1.96 -2.14,1.96c-2.22,0 -13.15,13.17 -18.26,22c-7.18,12.43 -9.67,35.88 -5.66,53.44c1.1,4.86 4.44,27.05 4.52,30.11c0.02,0.64 0.25,1.7 0.5,2.34c0.27,0.66 1.29,6.8 2.26,13.69c1,6.89 1.99,13.57 2.2,14.85c1.24,7.28 2.07,12.72 3.17,21.11c1.35,10.24 1.51,11.17 2.2,12.9c0.25,0.64 1.22,6.97 2.14,14.06c0.93,7.09 1.78,13.61 1.89,14.48c0.12,0.85 0.41,2.09 0.66,2.73c0.41,1.05 3.92,27.9 3.96,30.3c0,0.54 0.23,0.97 0.5,0.97c0.27,0 0.95,4.14 1.51,9.2c1.41,12.97 2.34,19.09 3.19,20.91c0.39,0.87 1.47,4.55 2.39,8.19c0.91,3.66 1.93,6.82 2.24,7.05c0.31,0.21 1.24,2.15 2.03,4.28c0.81,2.15 2.12,4.59 2.9,5.42c0.79,0.85 1.45,1.88 1.45,2.32c0,1.08 6.12,9.04 9.17,11.93c1.43,1.34 2.59,2.27 2.59,2.07c0,-0.21 0.6,0.33 1.37,1.2c0.75,0.85 3.32,2.83 5.68,4.38c2.36,1.53 4.67,3.08 5.1,3.43c0.44,0.35 2.9,1.47 5.48,2.5c2.59,1.03 5.14,2.19 5.66,2.56c0.52,0.39 1.29,0.5 1.7,0.23c0.41,-0.25 0.87,-0.1 1.02,0.33c0.33,1.01 12.32,3.12 17.69,3.12c2.28,0 4.13,0.27 4.13,0.6c0,0.31 69.35,0.58 154.11,0.58c84.76,0 154.11,-0.21 154.11,-0.48c0,-0.25 3.19,-0.68 7.07,-0.95c11.18,-0.81 19.52,-3.31 29.79,-9c6.8,-3.74 16.47,-11.44 16.47,-13.09c0,-0.19 0.62,-0.99 1.37,-1.8c2.47,-2.65 4.25,-5.13 5.52,-7.71c0.68,-1.41 1.51,-2.54 1.83,-2.54c0.31,0 1,-1.32 1.51,-2.94c0.52,-1.61 1.91,-5.21 3.11,-8c1.18,-2.81 2.59,-7.55 3.09,-10.57c0.52,-3 1.24,-6.16 1.62,-7.03c0.37,-0.87 1.43,-7.55 2.34,-14.85c0.89,-7.32 1.85,-13.84 2.12,-14.48c0.6,-1.53 0.56,-1.3 2.66,-17.21c0.97,-7.51 1.99,-13.86 2.24,-14.06c0.23,-0.21 0.5,-1.1 0.58,-1.96c0.6,-6.58 3.82,-28.99 4.21,-29.3c0.27,-0.23 1.41,-7.44 2.55,-16.03c1.14,-8.6 2.26,-16.71 2.49,-17.99c0.23,-1.28 1.24,-8.15 2.24,-15.24c1.02,-7.09 2.03,-13.44 2.28,-14.08c0.25,-0.64 0.48,-1.7 0.5,-2.34c0.06,-2.54 3.98,-29.01 4.69,-31.83c3.49,-13.48 -1.83,-45.5 -8.44,-51.06c-0.73,-0.6 -4.77,-6.95 -4.77,-7.47c0,-2.54 -20.99,-19.58 -25.97,-21.05c-1.04,-0.31 -2.63,-1.05 -3.59,-1.63c-2.2,-1.39 -12.51,-4.24 -15.29,-4.24c-1.16,0 -2.34,-0.35 -2.61,-0.79c-0.29,-0.48 -7.07,-0.79 -17.72,-0.79c-22.09,0 -22.32,-0.08 -23.03,-7.55c-0.91,-9.91 -2.16,-19.42 -2.63,-20.18c-0.25,-0.43 -0.52,-1.3 -0.6,-1.96c-0.41,-3.52 -3.65,-15.32 -4.48,-16.32c-0.52,-0.62 -0.87,-1.26 -0.77,-1.41c0.21,-0.31 0.04,-0.85 -1.83,-6.33c-0.77,-2.25 -1.68,-4.12 -2.03,-4.12c-0.35,0 -0.62,-0.48 -0.62,-1.08c0,-1.9 -6.39,-14.62 -9.07,-18.07c-1.06,-1.34 -4.5,-6.49 -7.01,-10.51c-2.05,-3.27 -25.02,-26.64 -26.16,-26.64c-0.46,0 -1.29,-0.62 -1.85,-1.41c-0.56,-0.77 -2.12,-2.09 -3.44,-2.92c-5.27,-3.33 -10.19,-6.62 -11.22,-7.51c-1.24,-1.08 -7.72,-4.67 -11.85,-6.58c-1.51,-0.7 -4.85,-2.25 -7.45,-3.45c-2.59,-1.2 -5.85,-2.42 -7.26,-2.73c-1.39,-0.31 -2.55,-0.81 -2.55,-1.14c0,-0.33 -0.44,-0.62 -0.97,-0.68c-0.54,-0.04 -4.69,-1.16 -9.21,-2.48c-15.5,-4.51 -17.84,-4.82 -39.62,-5.11c-11.2,-0.17 -21.26,-0.12 -22.34,0.06m28.63,26.9c0.27,0.43 2.01,0.79 3.88,0.79c4.31,0 21.57,2.92 22.72,3.83c0.48,0.37 3.44,1.41 6.62,2.3c3.17,0.89 6.53,2.11 7.45,2.71c0.93,0.6 3.03,1.53 4.65,2.05c1.62,0.54 3.38,1.41 3.92,1.92c0.54,0.54 2.74,1.8 4.9,2.81c2.16,1.03 4.09,2.07 4.31,2.32c0.21,0.25 1.97,1.49 3.92,2.73c11.8,7.65 28.15,24.59 33.77,35.03c0.66,1.26 1.56,2.52 1.95,2.81c0.41,0.29 1.29,1.57 1.97,2.87c0.68,1.28 1.99,3.74 2.92,5.46c3.09,5.67 6.24,13.21 7.65,18.38c0.79,2.79 1.66,5.25 1.97,5.46c0.62,0.43 2.76,10.69 3.55,17.02c0.29,2.25 0.83,4.09 1.2,4.09c1.72,0 0.58,5.13 -1.49,6.66c-2.12,1.53 -3.55,1.55 -124.15,1.76l-122.04,0.23l-2.1,-1.65c-2.12,-1.65 -3.13,-7.78 -1.29,-7.78c0.44,0 0.79,-1.28 0.79,-2.85c0,-3.81 3.15,-20.6 3.88,-20.6c0.31,0 0.58,-0.43 0.62,-0.97c0.08,-1.53 3.22,-9.76 4.92,-12.93c0.85,-1.59 1.56,-3.29 1.56,-3.76c0,-0.5 0.68,-1.76 1.54,-2.85c0.85,-1.08 1.37,-2.11 1.16,-2.34c-0.21,-0.21 0.17,-0.83 0.81,-1.36c0.66,-0.54 1.2,-1.41 1.2,-1.92c0,-0.52 0.62,-1.61 1.37,-2.44c0.75,-0.83 2.7,-3.45 4.29,-5.81c4.79,-7.03 5.54,-7.96 9.27,-11.68c1.95,-1.96 3.8,-4.2 4.11,-4.96c0.29,-0.74 1.14,-1.61 1.89,-1.9c0.75,-0.29 3.26,-2.38 5.6,-4.67c2.32,-2.27 4.44,-4.16 4.73,-4.16c0.27,-0.02 1.87,-1.2 3.53,-2.65c1.66,-1.47 3.96,-3.12 5.1,-3.7c1.14,-0.58 2.24,-1.28 2.45,-1.57c1.54,-1.92 17.28,-9.68 23.61,-11.62c3.19,-0.99 6,-2.05 6.2,-2.38c0.56,-0.83 19.04,-3.87 23.59,-3.87c2.07,0 3.98,-0.35 4.25,-0.79c0.27,-0.43 4.05,-0.79 8.63,-0.79c4.58,0 8.36,0.35 8.63,0.79m-143.92,134.11c10.64,2.92 9.58,20.64 -1.37,23.08c-14.73,3.31 -21.06,-18.63 -6.64,-23.02c3.65,-1.12 4.15,-1.12 8.01,-0.06m281.4,4.24c5.93,3.64 7.99,9.66 5.14,15.14c-1.43,2.73 -5.77,6.89 -6.66,6.33c-0.31,-0.19 -0.79,0.02 -1.06,0.45c-1.8,2.92 -12.26,-1.82 -14.11,-6.41c-2.8,-6.99 1.18,-16.25 6.99,-16.25c0.68,0 1.22,-0.35 1.22,-0.79c0,-1.57 4.79,-0.7 8.46,1.53m-290.09,1.03c-5.58,4.28 -2.63,13.07 4.38,13.07c6.66,0 10.12,-7.57 5.54,-12.14c-2.16,-2.15 -7.65,-2.65 -9.92,-0.93m280.69,2.96c-4.58,2.4 -5.21,9.93 -1,11.83c1.06,0.5 1.93,1.18 1.93,1.55c0,1.22 3.82,0.66 6.6,-0.97c8.4,-4.94 1.1,-16.96 -7.53,-12.41m-78.46,136.59l-0.23,99.1l-1.72,6.08c-13.48,47.23 -63.52,69.05 -108.85,47.46c-33.85,-16.13 -52.94,-47.19 -52.94,-86.19c0,-11.17 0.54,-12.7 3.24,-9.45c4.77,5.73 18.88,12.99 35.6,18.3c6.89,2.19 16.41,5.23 21.16,6.74c20.1,6.37 39.91,17.89 50.04,29.1c3.44,3.81 3.36,4.12 -2.05,6.87c-19.58,9.93 -46.99,4.59 -72.5,-14.15c-6.26,-4.59 -6.16,-3.68 0.44,3.93c19.11,22.02 41.01,30.09 64.72,23.84c25.54,-6.72 35.85,-25.62 35.83,-65.64c0,-40.26 -10.91,-66.38 -34.25,-82.08c-18.05,-12.12 -27.63,-28.1 -27.69,-46.08c0,-6.62 0.44,-6.47 -8.59,-2.98c-23.44,9.02 -36.22,28.02 -36.3,54c-0.06,22.79 11.89,36.87 37.82,44.57c1.08,0.31 3.84,1.41 6.12,2.44c2.26,1.01 4.44,1.86 4.83,1.86c1.74,0 22.09,9.7 26.84,12.8l2.01,1.32l-0.68,-3.74c-2.82,-15.26 -10.52,-28.06 -25.33,-42.23c-6.14,-5.85 -8.09,-8.29 -10.29,-12.88c-4.61,-9.6 -3.88,-10.3 4.58,-4.32c3.19,2.25 8.96,6.29 12.8,8.93c30.29,21.07 40.26,44.4 36.43,85.12c-1.37,14.58 -2.41,16.4 -5.54,9.74c-3.36,-7.16 -11.64,-14.04 -24.71,-20.54c-4.92,-2.44 -17.92,-7.63 -19.15,-7.63c-1.64,0 -20.66,-6.29 -27.76,-9.16c-54.62,-22.19 -64.18,-83.98 -19.83,-128.09c10.68,-10.63 22.98,-18.01 37.57,-22.56c11.68,-3.64 7.28,-3.35 55.66,-3.47l42.94,-0.1l-0.21,99.1m55.47,-96.93c14.33,5.42 20.87,21.65 14,34.68c-12.88,24.46 -48.11,16.28 -48.11,-11.17c0,-17.56 17.67,-29.74 34.1,-23.51m-78.04,12.55c0,2.13 -1.89,5.96 -4.46,9.02c-1.04,1.24 -2.61,3.7 -3.53,5.48c-0.89,1.78 -2.45,3.97 -3.42,4.88c-2.51,2.34 -3.61,6.53 -3.96,15.16l-0.29,7.42l1.43,-4.82c1.74,-5.83 5.58,-13.59 6.99,-14.15c1.99,-0.74 1.97,0.58 -0.08,5.27c-2.7,6.2 -3.86,13.75 -3.17,20.64l0.56,5.56l1.45,-4.3c1.18,-3.54 2.53,-5.31 7.41,-9.86c4.98,-4.65 5.87,-5.85 5.41,-7.3c-0.37,-1.14 -0.1,-2.21 0.79,-3.21c3.09,-3.39 4.05,-17.64 1.24,-18.57c-0.48,-0.17 -0.87,-1.24 -0.87,-2.38c0,-2.17 -2.45,-7.47 -4.4,-9.47c-0.95,-1.01 -1.1,-0.93 -1.1,0.62m-46.26,33.01c0,0.87 0.54,2.65 1.2,3.93c0.66,1.28 0.97,2.69 0.71,3.12c-0.91,1.49 3.38,6.78 6.68,8.23c1.74,0.77 3.17,1.63 3.17,1.94c0,0.93 2.51,1.63 8.07,2.27c3.28,0.37 5.93,1.14 6.87,1.99c3.28,2.96 0.29,-2.4 -3.84,-6.89c-2.51,-2.71 -1.24,-4.96 1.43,-2.54c2.1,1.9 2.01,0.93 -0.19,-2.05c-1.85,-2.5 -6.58,-5.34 -8.98,-5.38c-0.77,-0.02 -2.07,-0.54 -2.9,-1.16c-0.81,-0.62 -3.36,-1.68 -5.64,-2.34c-2.28,-0.66 -4.36,-1.55 -4.63,-1.96c-0.83,-1.32 -1.95,-0.85 -1.95,0.83m110.42,19.81c7.61,3.95 9.33,13.67 3.55,20.06c-6.43,7.11 -16.72,5.4 -20.95,-3.49c-4.92,-10.3 7.2,-21.84 17.4,-16.56" fill="#54ac7c" fill-rule="evenodd" id="path1"/>
            <path d="m354.36,219.83c-21.86,7.16 -25.47,35.16 -6,46.53c20.39,11.89 45.41,-10.36 35.62,-31.7c-5.19,-11.29 -19.11,-18.26 -29.62,-14.83" fill="#e9cc37" fill-rule="evenodd" id="path2"/>
            <path d="m313.95,282.09c0,35.26 0.1,49.57 0.21,31.81c0.12,-17.76 0.12,-46.63 0,-64.11c-0.1,-17.5 -0.21,-2.96 -0.21,32.3m-92.81,-62.04c-1.45,0.41 -2.49,0.89 -2.32,1.05c0.17,0.19 2.05,-0.17 4.19,-0.74c2.16,-0.6 3.19,-1.08 2.34,-1.08c-0.87,0 -2.76,0.35 -4.21,0.77m-43.27,24.71l-4.29,4.49l4.52,-4.28c2.47,-2.34 4.5,-4.36 4.5,-4.49c0,-0.58 -0.75,0.1 -4.73,4.28m97.52,23.64c0,2.79 0.15,3.95 0.33,2.54c0.17,-1.39 0.17,-3.68 0,-5.09c-0.19,-1.39 -0.33,-0.25 -0.33,2.54m17.36,3.33l-2.3,2.54l2.55,-2.3c1.39,-1.26 2.53,-2.4 2.53,-2.54c0,-0.6 -0.64,-0.06 -2.78,2.3m-32.05,-1.01c1.33,0.31 2.92,0.83 3.53,1.14c0.62,0.31 0.44,0.02 -0.41,-0.66c-0.83,-0.66 -2.43,-1.18 -3.53,-1.14c-1.85,0.06 -1.8,0.12 0.41,0.66m-33.34,0.43c0,0.41 0.5,1.65 1.12,2.73c0.62,1.08 1.12,1.59 1.12,1.18c0,-0.43 -0.5,-1.68 -1.12,-2.75c-0.62,-1.08 -1.12,-1.59 -1.12,-1.16m49,3.12c-0.27,1.51 -0.15,3.35 0.29,4.12c0.62,1.03 0.81,0.41 0.83,-2.75c0.02,-4.76 -0.37,-5.25 -1.12,-1.36m10.25,2.73c-1.56,1.74 -2.84,3.37 -2.84,3.68c0,0.29 0.27,0.21 0.6,-0.21c0.31,-0.39 1.8,-2.05 3.28,-3.66c1.49,-1.61 2.51,-2.94 2.26,-2.94c-0.25,0 -1.74,1.41 -3.3,3.12m-16.76,-0.31c0.77,0.89 1.37,2.03 1.37,2.52c0,0.52 0.37,0.91 0.81,0.91c1.1,0 -0.27,-2.5 -2.14,-3.95c-1.35,-1.05 -1.35,-1.03 -0.04,0.52m-2.99,1.18c-0.29,0.48 0.48,1.8 1.7,2.94l2.22,2.07l-1.74,-2.01c-2.03,-2.36 -2.24,-3.43 -0.52,-2.79c0.71,0.27 1.02,0.14 0.75,-0.29c-0.64,-1.03 -1.74,-0.99 -2.41,0.08m15.16,8.48c-0.54,1.92 -0.23,3.04 0.64,2.19c0.25,-0.25 0.33,-1.28 0.17,-2.27l-0.27,-1.84l-0.54,1.92m76.71,2.46c1.24,1.55 2.45,2.67 2.63,2.5c0.21,-0.14 -0.83,-1.41 -2.3,-2.79l-2.63,-2.52l2.3,2.81m-21.33,5.83c-0.6,2.44 0.12,7.34 1.24,8.48c0.56,0.54 0.54,-0.06 -0.06,-1.76c-0.5,-1.41 -0.71,-3.95 -0.48,-5.65c0.46,-3.47 0.06,-4.09 -0.71,-1.08m24.98,3.08c0.02,1.72 0.19,2.34 0.37,1.36c0.19,-0.97 0.17,-2.38 -0.02,-3.12c-0.19,-0.77 -0.35,0.04 -0.35,1.76m-20.04,9.57c1.41,1.41 3.03,2.54 3.57,2.52c0.54,-0.02 0.29,-0.41 -0.58,-0.89c-0.85,-0.48 -2.47,-1.61 -3.57,-2.52c-1.1,-0.91 -0.83,-0.5 0.58,0.89m-78.99,2.73c1.91,2.05 3.59,3.72 3.71,3.72c0.6,0 -0.02,-0.7 -3.49,-3.93l-3.73,-3.49l3.51,3.7m85.32,0.37c0.97,0.19 2.39,0.17 3.13,-0.02c0.77,-0.19 -0.04,-0.35 -1.76,-0.33c-1.72,0 -2.34,0.17 -1.37,0.35m-112.75,2.85c0,0.21 1.06,1.14 2.34,2.07c1.31,0.91 2.36,1.49 2.36,1.28c0,-0.23 -1.06,-1.16 -2.36,-2.07c-1.29,-0.93 -2.34,-1.49 -2.34,-1.28m5.77,4.22c0.62,1.01 5.21,4.4 5.21,3.85c0,-0.19 -1.29,-1.32 -2.88,-2.54c-1.58,-1.2 -2.61,-1.78 -2.32,-1.3m-6.95,8.79c2.57,2.59 4.83,4.69 5.06,4.69c0.21,0 -1.7,-2.11 -4.27,-4.69c-2.55,-2.59 -4.83,-4.69 -5.04,-4.69c-0.23,0 1.7,2.11 4.25,4.69m20.79,2.73c1.47,1.51 2.84,2.75 3.05,2.75c0.23,0 -0.79,-1.24 -2.26,-2.75c-1.47,-1.49 -2.84,-2.73 -3.05,-2.73c-0.23,0 0.81,1.24 2.26,2.73m-86.67,24.63c1.7,1.72 3.26,3.14 3.46,3.14c0.23,0 -1,-1.43 -2.68,-3.14c-1.68,-1.72 -3.24,-3.12 -3.44,-3.12c-0.23,0 0.97,1.41 2.66,3.12m115.84,-0.39c-0.04,0.87 0.23,2.98 0.6,4.69c0.54,2.63 0.64,2.75 0.64,0.79c0,-2.73 -1.18,-7.88 -1.24,-5.48m-44.79,6.95c0.81,0.72 6.99,3.6 6.99,3.25c0,-0.43 -5.91,-3.54 -6.76,-3.54c-0.29,0 -0.41,0.12 -0.23,0.29m46.41,4.01c0.02,1.72 0.17,2.32 0.35,1.34c0.19,-0.97 0.19,-2.38 0,-3.12c-0.21,-0.74 -0.35,0.04 -0.35,1.78m-29.37,2.75c-0.21,1.39 0.06,2.71 0.68,3.23c0.77,0.62 1.04,0.62 1.04,-0.02c0,-0.48 -0.29,-0.89 -0.64,-0.89c-0.35,0 -0.5,-1.05 -0.29,-2.34c0.19,-1.28 0.17,-2.34 -0.06,-2.34c-0.21,0 -0.54,1.05 -0.73,2.36m17.13,0.37c0.27,1.72 0.73,9.1 1.02,16.42l0.56,13.3l0.1,-11.35c0.06,-7.24 -0.31,-13.15 -1.02,-16.42c-0.6,-2.79 -0.91,-3.66 -0.66,-1.94m-122.85,6.41c0.64,0.23 2.24,1.34 3.53,2.48l2.34,2.05l-2.3,-2.54c-1.27,-1.39 -2.84,-2.5 -3.53,-2.46c-1.06,0.04 -1.06,0.1 -0.04,0.48m135.98,9.62c0,5.81 0.12,8.19 0.29,5.27c0.15,-2.9 0.15,-7.65 0,-10.55c-0.17,-2.92 -0.29,-0.54 -0.29,5.27m-68.54,-3.52c1.51,0.58 3.28,1.05 3.92,1.05c0.66,0 -0.04,-0.48 -1.56,-1.05c-1.51,-0.58 -3.28,-1.05 -3.92,-1.05c-0.66,0 0.06,0.48 1.56,1.05m-54.1,3.1c0,0.21 1.41,1.1 3.13,1.99c1.72,0.87 3.13,1.41 3.13,1.2c0,-0.23 -1.41,-1.12 -3.13,-1.99c-1.72,-0.89 -3.13,-1.43 -3.13,-1.2m75.34,3.85c0.81,0.72 8.57,4.36 8.57,4.01c0,-0.43 -7.49,-4.32 -8.34,-4.32c-0.31,0 -0.41,0.14 -0.23,0.31m10.12,5.21c2.74,1.84 4.27,2.38 2.36,0.81c-1.08,-0.87 -2.32,-1.59 -2.74,-1.59c-0.44,-0.02 -0.27,0.33 0.37,0.79m-56.07,3.08c0.87,0.37 2.12,0.68 2.76,0.68c0.73,0 0.58,-0.25 -0.39,-0.68c-0.87,-0.37 -2.1,-0.66 -2.76,-0.66c-0.73,0 -0.58,0.25 0.39,0.66m80.63,6.27c0,2.36 0.15,3.33 0.33,2.13c0.17,-1.18 0.17,-3.1 0,-4.28c-0.19,-1.2 -0.33,-0.23 -0.33,2.15m11.7,0.77c0,1.51 0.17,2.13 0.37,1.36c0.19,-0.74 0.19,-1.96 0,-2.73c-0.21,-0.74 -0.37,-0.12 -0.37,1.36m-134.11,1.57c-0.02,1.08 0.27,2.83 0.6,3.91c0.85,2.63 0.85,-0.21 0,-3.52c-0.52,-2.11 -0.58,-2.15 -0.6,-0.39m121.58,4.69c0,1.51 0.15,2.11 0.35,1.36c0.19,-0.74 0.19,-1.99 0,-2.73c-0.21,-0.77 -0.35,-0.14 -0.35,1.36m-15.87,18.36c2.34,2.38 4.44,4.3 4.65,4.3c0.21,0 -1.54,-1.92 -3.88,-4.3c-2.34,-2.36 -4.42,-4.3 -4.65,-4.3c-0.21,0 1.54,1.94 3.88,4.3m-67.07,4.3c2.57,2.59 4.83,4.69 5.06,4.69c0.21,0 -1.72,-2.11 -4.27,-4.69c-2.57,-2.59 -4.83,-4.69 -5.04,-4.69c-0.23,0 1.7,2.11 4.25,4.69m81.13,6.85l-2.7,2.94l2.95,-2.71c2.74,-2.5 3.3,-3.16 2.7,-3.16c-0.12,0 -1.45,1.32 -2.95,2.94m-56.03,-0.58c0.85,0.37 2.1,0.66 2.74,0.66c0.75,0 0.6,-0.25 -0.39,-0.66c-0.85,-0.37 -2.1,-0.68 -2.74,-0.68c-0.75,0 -0.6,0.25 0.39,0.68m-49.02,3.12c0.91,1.28 1.85,2.34 2.07,2.34c0.21,0 -0.37,-1.05 -1.29,-2.34c-0.93,-1.3 -1.87,-2.36 -2.07,-2.36c-0.21,0 0.37,1.05 1.29,2.36m69.41,-0.79l-8.63,0.48l8.24,0.08c4.52,0.04 9.11,-0.21 10.21,-0.56c1.45,-0.45 1.56,-0.6 0.37,-0.54c-0.85,0.04 -5.44,0.27 -10.19,0.54m-66.28,4.94c0,0.12 1.16,1.28 2.55,2.54l2.55,2.3l-2.3,-2.54c-2.16,-2.38 -2.8,-2.9 -2.8,-2.3m38.44,0.14c0,0.52 6.37,3.68 6.72,3.33c0.17,-0.17 -1.29,-1.08 -3.22,-2.01c-1.93,-0.93 -3.51,-1.53 -3.51,-1.32m15.68,5.85c1.93,0.62 9.19,1.05 8.57,0.52c-0.19,-0.17 -2.63,-0.48 -5.44,-0.72c-3.05,-0.25 -4.31,-0.17 -3.13,0.21m16.26,0.56c0.97,0.19 2.57,0.19 3.53,0c0.97,-0.19 0.19,-0.33 -1.76,-0.33c-1.93,0 -2.72,0.14 -1.76,0.33m-42.15,16.23c0,0.21 1.41,1.1 3.13,1.99c1.74,0.87 3.15,1.41 3.15,1.2c0,-0.21 -1.41,-1.12 -3.15,-1.99c-1.72,-0.89 -3.13,-1.43 -3.13,-1.2m35.89,11.17c2.7,0.14 7.12,0.14 9.79,0c2.7,-0.17 0.5,-0.29 -4.9,-0.29c-5.39,0 -7.59,0.12 -4.9,0.29m-118.82,21.88c7.24,0.14 19.04,0.14 26.28,0c7.22,-0.12 1.31,-0.23 -13.15,-0.23c-14.44,0 -20.35,0.1 -13.13,0.23m57.71,0.02c10.06,0.12 26.28,0.1 36.07,0c9.77,-0.12 1.56,-0.23 -18.3,-0.23c-19.83,0 -27.84,0.1 -17.78,0.23m70.57,0c9.19,0.12 24.02,0.12 32.94,-0.02c8.92,-0.1 1.41,-0.21 -16.72,-0.21c-18.11,0 -25.41,0.1 -16.22,0.23m71.26,0c12.16,0.1 32.28,0.1 44.7,0c12.45,-0.12 2.49,-0.23 -22.09,-0.23c-24.58,0 -34.77,0.1 -22.61,0.23m74.18,-0.02c3.78,0.14 9.96,0.14 13.73,0c3.75,-0.14 0.68,-0.25 -6.87,-0.25c-7.55,0 -10.64,0.1 -6.87,0.25" fill="#93cca7" fill-rule="evenodd" id="path3"/>
            <path d="m246.13,218.94c37.3,0.54 67.44,0.56 67.44,0.02c0,-0.33 -18.44,-0.5 -40.99,-0.41c-22.53,0.1 -34.44,0.27 -26.45,0.39m-64.76,23.08l-2.3,2.54l2.55,-2.3c2.36,-2.13 2.9,-2.79 2.3,-2.79c-0.15,0 -1.29,1.16 -2.55,2.54m116.67,1.86c0.73,0.21 1.47,1.26 1.66,2.32c0.31,1.68 0.33,1.63 0.25,-0.25c-0.06,-1.53 -0.54,-2.19 -1.66,-2.32c-1.14,-0.1 -1.2,-0.04 -0.25,0.25m-72.9,11.62c0.02,1.74 0.17,2.34 0.37,1.36c0.19,-0.97 0.17,-2.38 -0.02,-3.12c-0.21,-0.74 -0.35,0.04 -0.35,1.76m59.2,0.87c-0.25,0.25 -0.25,1.01 0,1.7c0.31,0.77 0.17,1.03 -0.39,0.68c-0.48,-0.29 -1.12,-0.1 -1.43,0.39c-0.37,0.6 -0.23,0.7 0.44,0.31c0.73,-0.45 0.85,-0.14 0.48,1.24c-0.33,1.24 0.02,0.95 1.06,-0.89c1.97,-3.41 1.87,-5.44 -0.15,-3.43m14.5,3.16c-0.5,1.57 -0.58,2.54 -0.19,2.15c0.77,-0.79 1.95,-5 1.41,-5c-0.19,0 -0.75,1.28 -1.22,2.85m-51.16,5.36c1.47,1.08 3.22,1.94 3.88,1.92c0.66,-0.02 0.12,-0.5 -1.22,-1.1c-1.37,-0.58 -2.7,-1.45 -2.99,-1.92c-0.31,-0.48 -0.95,-0.85 -1.43,-0.85c-0.5,0 0.31,0.87 1.76,1.94m31.32,0.89c-0.41,1.14 -0.64,2.21 -0.46,2.4c0.19,0.17 0.71,-0.77 1.16,-2.07c1.02,-2.92 0.39,-3.21 -0.71,-0.33m-14.85,5.13c5.02,4.65 7.99,6.95 5.5,4.26c-1.51,-1.63 -3.46,-3.35 -4.31,-3.81c-0.87,-0.45 -1.39,-0.66 -1.18,-0.45m15.95,6.49c0,3.02 0.15,4.16 0.31,2.52c0.17,-1.61 0.17,-4.07 0,-5.48c-0.19,-1.39 -0.31,-0.06 -0.31,2.96m-4.61,-1.28c0.17,1.88 0.73,3.83 1.27,4.32c0.75,0.66 0.81,0.52 0.33,-0.7c-0.33,-0.85 -0.89,-2.79 -1.27,-4.28c-0.6,-2.61 -0.62,-2.56 -0.33,0.66m12.14,0.7l-2.7,2.92l2.95,-2.69c1.62,-1.47 2.92,-2.79 2.92,-2.94c0,-0.58 -0.66,-0.02 -3.17,2.71m-28.59,8.81c1.51,0.62 8.84,1.05 8.17,0.48c-0.17,-0.14 -2.45,-0.48 -5.02,-0.7c-2.84,-0.25 -4.09,-0.17 -3.15,0.23m86.94,-0.21c-0.5,0.31 1.33,0.58 4.05,0.58c2.72,0 4.54,-0.27 4.05,-0.58c-0.5,-0.31 -2.32,-0.58 -4.05,-0.58c-1.72,0 -3.55,0.27 -4.05,0.58m-72.67,2.81c-0.25,0.68 -0.1,1.45 0.33,1.74c1.22,0.74 1.72,-0.17 0.89,-1.65c-0.66,-1.18 -0.79,-1.18 -1.22,-0.08m-93.02,4.4c-0.46,2.19 -0.83,4.94 -0.79,6.1c0.04,1.16 0.56,-0.52 1.14,-3.72c1.2,-6.68 0.95,-8.42 -0.35,-2.38m-29.71,12.51c0,4.94 0.25,9.89 0.54,10.96c0.54,1.86 0.27,-16.34 -0.27,-18.78c-0.15,-0.64 -0.27,2.87 -0.27,7.82m210.22,-2.94c-0.85,2.32 -0.83,2.4 0.21,1.03c1.02,-1.3 1.6,-3.56 0.93,-3.56c-0.1,0 -0.62,1.14 -1.14,2.52m-181.93,4.9c0,2.15 0.15,2.94 0.33,1.74c0.19,-1.18 0.19,-2.94 0,-3.91c-0.19,-0.95 -0.33,0.02 -0.33,2.17m46.82,10.01c0,0.14 1.16,1.28 2.55,2.54l2.55,2.3l-2.3,-2.54c-2.14,-2.36 -2.8,-2.9 -2.8,-2.3m-45.37,1.32c0,0.64 0.31,1.88 0.68,2.73c0.41,0.99 0.66,1.14 0.66,0.39c0,-0.64 -0.31,-1.88 -0.66,-2.73c-0.44,-0.99 -0.68,-1.14 -0.68,-0.39m95.74,8.98c0.93,1.92 1.83,3.37 2.01,3.21c0.35,-0.35 -2.82,-6.7 -3.36,-6.7c-0.21,0 0.41,1.57 1.35,3.49m-20.95,1.96c2.14,2.15 4.05,3.91 4.25,3.91c0.23,0 -1.33,-1.76 -3.46,-3.91c-2.12,-2.15 -4.05,-3.91 -4.25,-3.91c-0.21,0 1.35,1.76 3.46,3.91m-3.92,17.99c0.68,1.28 1.39,2.34 1.62,2.34c0.21,0 -0.17,-1.05 -0.83,-2.34c-0.66,-1.28 -1.39,-2.36 -1.6,-2.36c-0.23,0 0.15,1.08 0.81,2.36m-84.31,3.52c1.45,1.51 2.84,2.73 3.05,2.73c0.21,0 -0.81,-1.22 -2.26,-2.73c-1.47,-1.51 -2.84,-2.73 -3.05,-2.73c-0.23,0 0.79,1.22 2.26,2.73m146.91,2.34c0,2.59 0.15,3.56 0.31,2.15c0.19,-1.41 0.19,-3.52 0,-4.69c-0.19,-1.18 -0.33,-0.02 -0.31,2.54m-142.99,1.43c0,0.12 1.14,1.28 2.55,2.54l2.55,2.3l-2.3,-2.54c-2.16,-2.38 -2.8,-2.9 -2.8,-2.3m143.09,30.26c0,14.39 0.1,20.29 0.23,13.09c0.12,-7.2 0.12,-18.98 0,-26.2c-0.12,-7.2 -0.23,-1.3 -0.23,13.11m-125.84,-17.6c0,0.52 7.95,4.47 8.28,4.12c0.17,-0.17 -1.64,-1.24 -3.98,-2.4c-2.36,-1.16 -4.29,-1.92 -4.29,-1.72m99.03,2.73c0,1.94 0.15,2.73 0.33,1.76c0.19,-0.95 0.19,-2.54 0,-3.52c-0.19,-0.97 -0.33,-0.17 -0.33,1.76m-136.37,14.48c0,6.02 0.12,8.38 0.27,5.23c0.15,-3.12 0.15,-8.07 0,-10.94c-0.15,-2.87 -0.27,-0.31 -0.27,5.71m54.97,-9.47c1.31,0.58 3.24,1.28 4.31,1.55c1.58,0.37 1.51,0.27 -0.39,-0.6c-1.29,-0.58 -3.24,-1.28 -4.29,-1.55c-1.58,-0.37 -1.51,-0.27 0.37,0.6m-49,3.1c0,0.21 1.06,1.14 2.34,2.07c1.29,0.91 2.34,1.49 2.34,1.28c0,-0.23 -1.06,-1.16 -2.34,-2.07c-1.29,-0.91 -2.34,-1.49 -2.34,-1.28m17.24,10.28c1.08,0.6 2.32,1.12 2.76,1.12c0.41,0 -0.1,-0.52 -1.18,-1.12c-1.08,-0.62 -2.32,-1.12 -2.74,-1.12c-0.44,0 0.08,0.5 1.16,1.12m100.59,6.25c0,1.72 0.17,2.34 0.35,1.36c0.19,-0.97 0.19,-2.38 0,-3.12c-0.21,-0.74 -0.35,0.04 -0.35,1.76m12.57,1.96c0,1.92 0.15,2.73 0.33,1.76c0.19,-0.97 0.19,-2.56 0,-3.52c-0.19,-0.97 -0.33,-0.19 -0.33,1.76m-23.36,4.69c1.68,1.72 3.24,3.12 3.46,3.12c0.21,0 -1,-1.41 -2.68,-3.12c-1.68,-1.74 -3.24,-3.14 -3.46,-3.14c-0.21,0 1,1.41 2.68,3.14m-84.31,15.41c0.64,0.23 1.89,0.99 2.74,1.7c1.56,1.26 1.56,1.24 0.08,-0.5c-0.83,-0.97 -2.05,-1.74 -2.74,-1.7c-1.08,0.04 -1.08,0.12 -0.08,0.5m76.07,8.52c5.89,5.62 6.51,6.49 5.56,7.65c-0.93,1.12 -0.89,1.22 0.21,0.79c2.43,-0.91 -3.49,-8.35 -10.85,-13.65c-0.87,-0.62 1.41,1.72 5.08,5.21m-94.35,4.59c0.71,1.49 1.43,2.59 1.62,2.42c0.35,-0.35 -2.03,-5.15 -2.57,-5.15c-0.19,0 0.23,1.24 0.95,2.73m30.43,2.75c1.68,1.72 3.24,3.12 3.44,3.12c0.23,0 -0.97,-1.41 -2.66,-3.12c-1.68,-1.72 -3.24,-3.12 -3.46,-3.12c-0.21,0 1,1.41 2.68,3.12m12.94,-0.39c1.08,0.62 2.3,1.12 2.74,1.12c0.44,0 -0.1,-0.5 -1.18,-1.12c-1.08,-0.62 -2.3,-1.12 -2.74,-1.12c-0.44,0 0.1,0.5 1.18,1.12m-8.63,3.76c0,0.12 1.14,1.28 2.55,2.54l2.55,2.3l-2.3,-2.54c-2.16,-2.38 -2.8,-2.9 -2.8,-2.3m102.29,12.78c-1.2,1.59 -1.78,2.63 -1.31,2.34c1.02,-0.62 4.4,-5.19 3.86,-5.19c-0.19,0 -1.35,1.28 -2.55,2.85m-68.37,3.14c0.75,0.21 1.99,0.21 2.74,0c0.77,-0.19 0.15,-0.35 -1.37,-0.35c-1.51,0 -2.12,0.17 -1.37,0.35m-50.39,1.28c0,0.12 1.14,1.26 2.55,2.54l2.55,2.3l-2.3,-2.54c-2.16,-2.38 -2.8,-2.92 -2.8,-2.3m111.73,3.85l-3.9,4.12l4.13,-3.89c3.82,-3.6 4.48,-4.32 3.88,-4.32c-0.1,0 -1.97,1.84 -4.11,4.09m-62.5,20.7c0.97,0.19 2.39,0.17 3.13,-0.02c0.75,-0.21 -0.04,-0.35 -1.76,-0.35c-1.74,0.02 -2.34,0.17 -1.37,0.37m18.03,0c0.97,0.19 2.39,0.17 3.13,-0.02c0.77,-0.21 -0.04,-0.35 -1.76,-0.35c-1.72,0.02 -2.34,0.17 -1.37,0.37" fill="#acdcc4" fill-rule="evenodd" id="path4"/>
        </g>
    </g>
</svg>