<svg id="svg" version="1.1" xmlns="http://www.w3.org/2000/svg" xmlns:xlink="http://www.w3.org/1999/xlink" width="400" height="377.80294450736125" viewBox="0, 0, 400,377.80294450736125"><g id="svgg"><path id="path0" d="M186.957 38.053 C 186.125 38.140,185.189 38.322,184.877 38.457 C 184.565 38.591,182.949 38.913,181.285 39.172 C 177.511 39.760,174.162 40.534,173.913 40.876 C 173.809 41.019,172.916 41.257,171.928 41.405 C 170.940 41.553,170.132 41.803,170.132 41.961 C 170.132 42.118,169.452 42.356,168.620 42.489 C 167.788 42.622,167.108 42.899,167.108 43.105 C 167.108 43.310,166.778 43.478,166.374 43.478 C 165.970 43.478,165.545 43.633,165.428 43.822 C 165.311 44.010,164.365 44.383,163.326 44.649 C 162.287 44.916,161.437 45.271,161.437 45.440 C 161.437 45.609,161.181 45.747,160.870 45.747 C 160.558 45.747,160.302 45.895,160.302 46.076 C 160.302 46.257,159.494 46.627,158.507 46.900 C 157.519 47.172,156.456 47.671,156.144 48.009 C 155.832 48.347,154.981 48.857,154.253 49.141 C 153.526 49.426,152.641 49.954,152.287 50.314 C 151.933 50.674,151.040 51.168,150.302 51.412 C 149.564 51.655,148.959 52.054,148.956 52.298 C 148.954 52.542,148.260 53.032,147.413 53.388 C 146.566 53.744,145.962 54.178,146.070 54.353 C 146.178 54.529,145.513 55.003,144.592 55.408 C 143.672 55.813,142.917 56.385,142.915 56.679 C 142.913 56.974,142.808 57.112,142.682 56.986 C 142.431 56.734,141.898 57.115,140.294 58.696 C 139.713 59.267,139.052 59.735,138.825 59.735 C 138.598 59.735,138.276 59.957,138.110 60.229 C 137.943 60.500,137.127 61.223,136.295 61.836 C 133.859 63.629,126.373 71.485,125.932 72.712 C 125.846 72.950,125.378 73.457,124.892 73.839 C 124.406 74.222,124.008 74.772,124.008 75.061 C 124.008 75.351,123.667 75.770,123.251 75.993 C 122.835 76.216,122.248 76.987,121.947 77.707 C 121.646 78.428,121.233 79.017,121.030 79.017 C 120.612 79.017,119.471 81.134,119.471 81.911 C 119.471 82.191,119.258 82.420,118.998 82.421 C 118.738 82.422,118.199 83.216,117.800 84.186 C 117.401 85.156,116.780 86.245,116.420 86.605 C 116.059 86.965,115.640 87.660,115.489 88.148 C 115.337 88.636,114.895 89.488,114.506 90.039 C 114.118 90.591,113.800 91.389,113.800 91.813 C 113.800 92.236,113.629 92.688,113.422 92.817 C 113.214 92.945,113.043 93.381,113.043 93.784 C 113.043 94.188,112.873 94.518,112.665 94.518 C 112.457 94.518,112.287 94.870,112.287 95.301 C 112.287 95.732,112.032 96.339,111.720 96.651 C 111.408 96.963,111.153 97.632,111.153 98.137 C 111.153 98.642,110.999 99.055,110.811 99.055 C 110.622 99.055,110.351 99.905,110.208 100.945 C 110.065 101.985,109.834 102.836,109.695 102.836 C 109.389 102.836,108.099 107.798,107.115 112.756 C 107.002 113.326,106.787 113.716,106.637 113.623 C 106.368 113.457,105.480 122.091,105.481 124.858 C 105.482 125.638,105.312 126.276,105.104 126.276 C 104.896 126.276,104.726 126.709,104.726 127.238 C 104.726 127.768,104.327 128.600,103.840 129.087 L 102.953 129.973 90.248 130.110 C 80.740 130.211,77.424 130.365,77.070 130.718 C 76.810 130.978,76.249 131.192,75.822 131.193 C 75.396 131.195,74.557 131.451,73.958 131.764 C 73.358 132.076,72.210 132.437,71.406 132.566 C 70.601 132.695,69.943 132.935,69.943 133.100 C 69.943 133.264,69.400 133.519,68.736 133.664 C 68.072 133.810,67.294 134.164,67.008 134.451 C 66.721 134.737,66.159 134.972,65.757 134.972 C 65.356 134.972,65.028 135.130,65.028 135.324 C 65.028 135.518,64.646 135.798,64.178 135.945 C 63.710 136.093,63.071 136.487,62.759 136.822 C 62.150 137.474,59.878 139.130,59.594 139.130 C 58.902 139.130,51.040 146.986,51.040 147.677 C 51.040 147.952,50.717 148.350,50.323 148.561 C 49.929 148.772,49.427 149.461,49.207 150.092 C 48.987 150.722,48.544 151.340,48.222 151.463 C 47.900 151.587,47.637 151.835,47.637 152.014 C 47.637 152.310,46.188 155.502,45.420 156.900 C 44.527 158.524,44.264 159.194,44.030 160.442 C 43.883 161.223,43.609 161.706,43.389 161.571 C 43.146 161.421,43.064 161.836,43.165 162.702 C 43.253 163.455,43.156 164.128,42.950 164.196 C 41.957 164.527,42.450 187.906,43.478 189.225 C 43.640 189.433,43.895 191.178,44.044 193.103 C 44.193 195.028,44.449 196.685,44.612 196.786 C 44.775 196.887,45.030 198.672,45.179 200.753 C 45.328 202.834,45.602 204.537,45.787 204.537 C 45.973 204.537,46.125 205.302,46.125 206.238 C 46.125 207.174,46.275 207.940,46.458 207.940 C 46.641 207.940,47.007 210.491,47.271 213.611 C 47.536 216.730,47.896 219.282,48.073 219.282 C 48.249 219.282,48.393 220.037,48.393 220.961 C 48.393 221.884,48.539 222.729,48.716 222.839 C 48.894 222.949,49.158 224.618,49.303 226.548 C 49.449 228.478,49.729 230.218,49.926 230.416 C 50.122 230.613,50.284 231.592,50.284 232.590 C 50.284 233.588,50.422 234.405,50.592 234.405 C 50.761 234.405,51.215 237.765,51.599 241.871 C 52.060 246.786,52.465 249.468,52.786 249.716 C 53.101 249.961,53.437 252.058,53.738 255.671 C 54.045 259.356,54.351 261.248,54.639 261.248 C 54.931 261.248,55.304 263.856,55.775 269.187 C 56.245 274.524,56.618 277.127,56.911 277.127 C 57.313 277.127,58.619 288.412,58.606 291.777 C 58.603 292.543,58.788 293.006,59.099 293.006 C 59.461 293.006,59.729 294.392,60.086 298.114 C 60.356 300.923,60.727 303.315,60.912 303.429 C 61.097 303.543,61.248 303.967,61.248 304.370 C 61.248 304.774,61.418 305.104,61.626 305.104 C 61.834 305.104,62.004 305.567,62.004 306.133 C 62.004 307.578,62.873 311.153,63.224 311.153 C 63.385 311.153,63.516 311.578,63.516 312.098 C 63.516 312.618,63.686 313.043,63.894 313.043 C 64.102 313.043,64.272 313.350,64.272 313.726 C 64.272 314.101,64.780 315.208,65.400 316.186 C 66.020 317.164,66.634 318.388,66.764 318.907 C 66.894 319.425,67.141 319.849,67.312 319.849 C 67.484 319.849,67.741 320.219,67.885 320.672 C 68.029 321.124,68.553 321.933,69.049 322.468 C 69.545 323.003,70.044 323.729,70.156 324.083 C 70.268 324.436,70.692 324.830,71.097 324.959 C 71.502 325.087,71.834 325.526,71.834 325.933 C 71.834 326.382,72.220 326.820,72.815 327.046 C 73.355 327.251,73.882 327.744,73.986 328.140 C 74.089 328.536,74.668 329.065,75.272 329.315 C 75.876 329.566,76.371 330.003,76.371 330.287 C 76.371 330.570,76.966 331.052,77.694 331.356 C 78.422 331.660,79.018 332.130,79.018 332.400 C 79.019 332.671,79.827 333.214,80.814 333.606 C 81.801 333.999,82.779 334.525,82.987 334.775 C 83.195 335.026,84.003 335.441,84.783 335.698 C 85.562 335.954,86.200 336.321,86.200 336.513 C 86.200 336.705,86.626 336.862,87.146 336.862 C 87.665 336.862,88.091 337.009,88.091 337.188 C 88.091 337.368,89.117 337.733,90.370 337.999 C 91.624 338.265,92.740 338.628,92.850 338.806 C 92.960 338.985,93.622 339.130,94.320 339.130 C 95.018 339.130,95.646 339.282,95.715 339.467 C 96.385 341.255,303.610 341.253,304.285 339.464 C 304.354 339.281,304.873 339.130,305.438 339.130 C 306.003 339.130,306.627 338.984,306.824 338.806 C 307.022 338.627,308.247 338.264,309.546 337.998 C 310.846 337.732,311.909 337.368,311.909 337.188 C 311.909 337.009,312.335 336.862,312.854 336.862 C 313.374 336.862,313.800 336.705,313.800 336.513 C 313.800 336.321,314.438 335.954,315.217 335.698 C 315.997 335.441,316.805 335.026,317.013 334.775 C 317.221 334.525,318.199 333.999,319.186 333.606 C 320.173 333.214,320.981 332.699,320.982 332.463 C 320.982 332.227,321.578 331.751,322.306 331.405 C 323.034 331.060,323.629 330.551,323.629 330.274 C 323.629 329.997,324.124 329.566,324.728 329.315 C 325.332 329.065,325.915 328.522,326.023 328.107 C 326.131 327.693,326.573 327.262,327.004 327.149 C 327.451 327.032,327.788 326.635,327.788 326.224 C 327.788 325.826,328.203 325.314,328.715 325.082 C 329.224 324.849,329.811 324.173,330.018 323.577 C 330.226 322.982,330.574 322.495,330.793 322.495 C 331.012 322.495,331.191 322.150,331.191 321.727 C 331.191 321.305,331.446 320.861,331.758 320.742 C 332.070 320.622,332.325 320.301,332.325 320.029 C 332.325 319.757,332.453 319.477,332.609 319.408 C 333.035 319.218,335.298 314.530,335.589 313.233 C 335.730 312.609,335.946 312.013,336.070 311.909 C 336.726 311.359,337.235 309.798,337.657 307.043 C 337.915 305.353,338.268 303.970,338.440 303.970 C 338.612 303.970,338.752 303.372,338.752 302.641 C 338.752 301.911,338.910 301.018,339.102 300.656 C 339.471 299.964,340.265 293.604,340.265 291.338 C 340.265 290.375,340.406 290.059,340.774 290.200 C 341.166 290.351,341.340 289.668,341.524 287.258 C 342.075 280.056,342.710 275.236,343.108 275.236 C 343.370 275.236,343.767 272.580,344.191 267.995 C 344.580 263.775,345.068 260.424,345.360 259.961 C 345.635 259.525,346.074 256.814,346.336 253.937 C 346.597 251.060,347.012 248.505,347.258 248.260 C 347.516 248.001,347.992 244.675,348.390 240.353 C 348.826 235.609,349.227 232.892,349.491 232.893 C 349.757 232.893,349.859 232.149,349.776 230.813 C 349.702 229.628,349.805 228.733,350.015 228.733 C 350.217 228.733,350.504 227.117,350.652 225.142 C 350.800 223.166,351.075 221.550,351.264 221.550 C 351.453 221.550,351.607 220.614,351.607 219.471 C 351.607 218.327,351.748 217.391,351.920 217.391 C 352.092 217.391,352.461 214.754,352.741 211.531 C 353.021 208.308,353.390 205.671,353.562 205.671 C 353.734 205.671,353.875 204.735,353.875 203.592 C 353.875 202.448,354.029 201.512,354.218 201.512 C 354.407 201.512,354.682 199.893,354.831 197.915 C 354.979 195.936,355.234 194.235,355.398 194.134 C 355.561 194.033,355.818 192.291,355.968 190.264 C 356.118 188.237,356.373 186.493,356.534 186.389 C 357.676 185.654,357.680 166.079,356.539 164.659 C 356.368 164.446,356.108 163.379,355.961 162.287 C 355.815 161.196,355.540 160.302,355.352 160.302 C 355.164 160.302,355.009 160.000,355.009 159.630 C 355.009 159.261,354.499 157.975,353.875 156.772 C 353.251 155.570,352.741 154.408,352.741 154.191 C 352.741 153.974,352.231 153.040,351.607 152.115 C 350.983 151.191,350.473 150.172,350.473 149.851 C 350.473 149.530,350.132 149.179,349.716 149.070 C 349.301 148.961,348.960 148.629,348.960 148.331 C 348.960 148.033,348.572 147.415,348.097 146.957 C 347.623 146.499,346.938 145.657,346.576 145.085 C 346.214 144.513,345.667 144.045,345.360 144.045 C 345.053 144.045,344.802 143.782,344.802 143.461 C 344.802 143.139,344.292 142.586,343.670 142.232 C 343.047 141.878,342.537 141.404,342.535 141.179 C 342.534 140.954,342.065 140.529,341.493 140.234 C 340.922 139.939,340.144 139.315,339.765 138.847 C 339.386 138.379,338.926 137.996,338.744 137.996 C 338.379 137.996,334.898 135.741,334.590 135.305 C 334.484 135.155,333.931 134.915,333.361 134.772 C 332.791 134.629,332.325 134.360,332.325 134.175 C 332.325 133.989,331.997 133.837,331.596 133.837 C 331.195 133.837,330.632 133.603,330.345 133.316 C 330.058 133.029,329.068 132.668,328.144 132.513 C 327.221 132.359,326.380 132.123,326.276 131.989 C 326.021 131.660,322.741 130.776,320.416 130.410 C 319.376 130.246,313.634 130.099,307.656 130.084 C 300.680 130.067,296.786 129.921,296.786 129.679 C 296.786 129.471,296.616 129.301,296.408 129.301 C 294.965 129.301,294.513 127.836,294.101 121.829 C 293.876 118.557,293.538 115.822,293.349 115.753 C 293.160 115.684,293.006 115.046,293.006 114.335 C 293.006 113.625,292.858 113.043,292.676 113.043 C 292.495 113.043,292.230 111.856,292.087 110.406 C 291.944 108.955,291.683 107.679,291.507 107.570 C 291.330 107.461,291.069 106.521,290.926 105.482 C 290.783 104.442,290.534 103.592,290.372 103.592 C 290.211 103.592,289.966 102.784,289.828 101.796 C 289.691 100.808,289.329 99.670,289.023 99.266 C 288.718 98.862,288.469 98.139,288.469 97.659 C 288.469 97.179,288.341 96.786,288.185 96.785 C 287.873 96.783,286.754 94.170,286.365 92.533 C 286.230 91.961,285.967 91.493,285.781 91.493 C 285.596 91.493,285.444 91.238,285.444 90.926 C 285.444 90.614,285.296 90.359,285.115 90.359 C 284.934 90.359,284.572 89.594,284.310 88.658 C 284.048 87.722,283.612 86.957,283.341 86.957 C 283.070 86.957,282.739 86.574,282.604 86.106 C 282.166 84.580,281.257 82.798,280.919 82.798 C 280.737 82.798,280.391 82.202,280.151 81.474 C 279.911 80.747,279.563 80.151,279.378 80.151 C 279.192 80.151,279.139 79.896,279.258 79.584 C 279.392 79.236,279.258 79.017,278.912 79.017 C 278.601 79.017,278.082 78.464,277.758 77.788 C 277.435 77.112,276.820 76.345,276.392 76.084 C 275.964 75.822,275.614 75.358,275.614 75.053 C 275.614 74.747,275.189 74.219,274.669 73.878 C 274.149 73.538,273.724 73.050,273.724 72.794 C 273.724 72.538,273.388 72.025,272.977 71.653 C 272.566 71.281,272.305 70.855,272.397 70.706 C 272.489 70.557,272.144 70.211,271.632 69.936 C 271.119 69.662,270.699 69.315,270.699 69.166 C 270.699 68.883,267.958 66.060,266.627 64.972 C 266.208 64.629,265.719 64.114,265.541 63.829 C 265.090 63.104,261.052 59.735,260.635 59.735 C 260.447 59.735,259.960 59.291,259.552 58.749 C 259.145 58.206,258.424 57.615,257.950 57.435 C 257.476 57.255,257.089 56.848,257.089 56.531 C 257.089 56.214,256.889 55.955,256.646 55.955 C 255.817 55.955,253.328 54.633,253.318 54.188 C 253.313 53.944,252.728 53.553,252.018 53.319 C 251.309 53.085,250.634 52.647,250.519 52.347 C 250.403 52.046,249.636 51.531,248.813 51.201 C 247.990 50.872,247.237 50.394,247.139 50.139 C 247.041 49.884,246.263 49.444,245.409 49.163 C 244.555 48.881,243.856 48.507,243.856 48.333 C 243.856 48.158,243.601 48.015,243.289 48.015 C 242.977 48.015,242.722 47.876,242.722 47.705 C 242.722 47.535,241.871 47.164,240.832 46.881 C 239.792 46.598,238.941 46.227,238.941 46.056 C 238.941 45.886,238.601 45.747,238.185 45.747 C 237.769 45.747,237.429 45.597,237.429 45.414 C 237.429 45.230,236.674 44.890,235.750 44.658 C 234.827 44.425,233.966 44.065,233.838 43.857 C 233.709 43.648,233.188 43.478,232.681 43.478 C 232.173 43.478,231.758 43.319,231.758 43.123 C 231.758 42.928,230.992 42.654,230.057 42.513 C 229.121 42.373,228.355 42.113,228.355 41.936 C 228.355 41.759,227.505 41.501,226.465 41.363 C 225.425 41.225,224.575 40.984,224.575 40.827 C 224.575 40.669,223.642 40.424,222.501 40.282 C 221.361 40.139,220.339 39.879,220.230 39.703 C 220.122 39.527,218.715 39.264,217.105 39.117 C 215.495 38.971,213.939 38.659,213.648 38.424 C 213.125 38.003,190.431 37.688,186.957 38.053 M213.586 56.096 C 215.633 56.365,217.218 56.757,217.304 57.016 C 217.387 57.264,217.788 57.467,218.195 57.467 C 219.602 57.467,224.766 58.667,225.331 59.125 C 225.643 59.378,226.749 59.799,227.788 60.060 C 228.828 60.321,229.735 60.695,229.805 60.891 C 229.874 61.087,230.257 61.248,230.655 61.248 C 231.054 61.248,231.380 61.410,231.380 61.609 C 231.380 61.807,231.969 62.080,232.690 62.215 C 233.410 62.350,234.197 62.698,234.437 62.989 C 234.678 63.279,235.195 63.516,235.585 63.516 C 235.975 63.516,236.295 63.686,236.295 63.894 C 236.295 64.102,236.538 64.272,236.835 64.272 C 237.132 64.272,237.608 64.505,237.892 64.789 C 238.177 65.074,238.827 65.437,239.337 65.597 C 239.847 65.756,240.350 66.000,240.454 66.139 C 240.558 66.278,241.297 66.789,242.096 67.275 C 242.896 67.761,243.944 68.553,244.427 69.036 C 244.909 69.518,245.737 70.021,246.268 70.155 C 246.798 70.288,247.331 70.709,247.452 71.091 C 247.574 71.473,248.177 72.009,248.794 72.282 C 249.410 72.555,250.004 73.062,250.114 73.409 C 250.224 73.755,250.818 74.214,251.433 74.429 C 252.049 74.643,252.552 75.010,252.552 75.244 C 252.552 75.779,253.298 76.526,254.159 76.852 C 254.523 76.990,254.820 77.368,254.820 77.691 C 254.820 78.015,255.246 78.441,255.766 78.639 C 256.285 78.837,256.711 79.210,256.711 79.468 C 256.711 79.727,257.098 80.284,257.571 80.706 C 258.044 81.129,258.755 81.985,259.151 82.609 C 259.547 83.233,260.691 84.730,261.694 85.936 C 262.696 87.143,263.516 88.303,263.516 88.515 C 263.516 88.727,263.729 89.138,263.989 89.428 C 265.099 90.666,265.406 91.104,265.406 91.450 C 265.406 91.652,265.620 92.042,265.882 92.317 C 266.143 92.592,266.695 93.524,267.107 94.389 C 267.520 95.254,267.952 95.903,268.069 95.831 C 268.185 95.760,268.503 96.455,268.775 97.378 C 269.048 98.300,269.422 99.055,269.607 99.055 C 269.792 99.055,269.943 99.407,269.943 99.838 C 269.943 100.269,270.183 100.861,270.476 101.154 C 270.769 101.447,271.127 102.388,271.272 103.246 C 271.417 104.104,271.834 105.104,272.199 105.469 C 272.564 105.834,273.075 107.305,273.336 108.737 C 273.596 110.170,274.050 111.534,274.344 111.769 C 274.669 112.029,275.117 113.883,275.486 116.495 C 275.820 118.860,276.309 121.049,276.574 121.361 C 278.658 123.821,277.295 129.301,274.598 129.301 C 273.909 129.301,273.346 129.471,273.346 129.679 C 273.346 129.929,248.284 130.057,198.917 130.057 L 124.489 130.057 123.461 129.029 L 122.434 128.002 122.704 124.037 C 122.876 121.508,123.161 119.885,123.491 119.555 C 123.775 119.271,124.008 118.563,124.008 117.981 C 124.008 116.045,125.167 110.240,125.671 109.652 C 125.945 109.334,126.460 107.883,126.817 106.427 C 127.174 104.972,127.687 103.526,127.958 103.214 C 128.230 102.902,128.684 101.966,128.969 101.134 C 129.253 100.302,129.572 99.537,129.677 99.433 C 130.109 99.005,131.105 96.906,131.336 95.936 C 131.472 95.364,131.750 94.896,131.954 94.896 C 132.158 94.896,132.325 94.574,132.325 94.180 C 132.325 93.787,132.580 93.367,132.892 93.247 C 133.204 93.127,133.459 92.800,133.459 92.519 C 133.459 92.238,133.970 91.436,134.594 90.737 C 135.217 90.039,135.728 89.242,135.728 88.968 C 135.728 88.693,135.886 88.469,136.080 88.469 C 136.274 88.469,136.531 88.171,136.651 87.807 C 136.771 87.443,137.376 86.550,137.996 85.822 C 138.615 85.095,139.284 84.305,139.482 84.067 C 139.679 83.829,139.731 83.525,139.597 83.390 C 139.462 83.256,139.713 83.051,140.155 82.936 C 140.596 82.821,141.061 82.311,141.188 81.803 C 141.316 81.296,141.841 80.721,142.355 80.525 C 142.869 80.330,143.289 79.907,143.289 79.585 C 143.289 79.264,143.715 78.807,144.234 78.570 C 144.754 78.333,145.180 77.904,145.180 77.615 C 145.180 77.327,145.689 76.802,146.311 76.447 C 146.934 76.093,147.444 75.587,147.446 75.321 C 147.447 75.056,147.831 74.689,148.299 74.505 C 148.767 74.321,149.459 73.745,149.838 73.225 C 150.217 72.705,150.929 72.179,151.420 72.056 C 151.911 71.933,152.420 71.492,152.552 71.077 C 152.684 70.661,153.004 70.321,153.262 70.321 C 153.521 70.321,154.098 69.981,154.544 69.565 C 154.991 69.149,155.533 68.809,155.750 68.809 C 155.966 68.809,156.144 68.678,156.144 68.518 C 156.144 68.357,156.909 67.808,157.845 67.297 C 158.781 66.786,159.546 66.236,159.546 66.076 C 159.546 65.916,159.775 65.784,160.056 65.784 C 160.336 65.784,160.957 65.444,161.437 65.028 C 161.916 64.612,162.538 64.272,162.818 64.272 C 163.098 64.272,163.327 64.102,163.327 63.894 C 163.327 63.686,163.582 63.516,163.894 63.516 C 164.206 63.516,164.461 63.362,164.461 63.173 C 164.461 62.984,165.312 62.612,166.352 62.345 C 167.391 62.079,168.242 61.723,168.242 61.554 C 168.242 61.386,168.582 61.248,168.998 61.248 C 169.414 61.248,169.754 61.094,169.754 60.907 C 169.754 60.720,170.605 60.363,171.645 60.113 C 172.684 59.864,173.535 59.523,173.535 59.357 C 173.535 58.888,175.508 58.307,178.829 57.799 C 180.712 57.511,181.853 57.161,181.853 56.873 C 181.853 56.408,183.413 56.175,190.737 55.547 C 195.182 55.166,209.041 55.499,213.586 56.096 M114.556 137.618 C 114.556 137.826,114.990 137.996,115.520 137.996 C 116.906 137.996,118.383 138.866,119.471 140.322 C 120.697 141.964,120.885 147.607,119.754 148.856 C 119.390 149.258,119.093 149.778,119.093 150.012 C 119.093 150.456,115.978 151.985,115.075 151.985 C 114.789 151.985,114.556 152.155,114.556 152.363 C 114.556 152.571,114.216 152.741,113.800 152.741 C 113.384 152.741,113.043 152.571,113.043 152.363 C 113.043 152.155,112.533 151.985,111.909 151.985 C 111.285 151.985,110.775 151.833,110.775 151.648 C 110.775 151.462,110.367 151.208,109.868 151.083 C 109.343 150.951,108.667 150.288,108.261 149.507 C 107.876 148.765,107.391 148.178,107.183 148.203 C 106.247 148.316,105.954 143.643,106.805 142.155 C 107.102 141.635,107.354 141.380,107.364 141.588 C 107.375 141.796,107.739 141.270,108.174 140.420 C 108.973 138.861,110.416 137.996,112.220 137.996 C 112.673 137.996,113.043 137.826,113.043 137.618 C 113.043 137.410,113.384 137.240,113.800 137.240 C 114.216 137.240,114.556 137.410,114.556 137.618 M288.469 139.827 C 288.469 140.002,289.149 140.349,289.981 140.598 C 290.813 140.847,291.493 141.287,291.493 141.576 C 291.493 141.864,291.904 142.423,292.405 142.818 C 293.772 143.892,294.321 151.097,292.973 150.264 C 292.775 150.141,292.355 150.655,292.041 151.406 C 291.727 152.157,291.306 152.670,291.104 152.545 C 290.902 152.420,290.737 152.485,290.737 152.689 C 290.737 152.892,290.227 153.171,289.603 153.308 C 288.979 153.445,288.469 153.714,288.469 153.905 C 288.469 154.097,287.533 154.253,286.389 154.253 C 285.246 154.253,284.310 154.083,284.310 153.875 C 284.310 153.667,283.982 153.497,283.581 153.497 C 283.180 153.497,282.625 153.271,282.349 152.994 C 282.072 152.718,281.668 152.551,281.450 152.623 C 280.820 152.833,279.706 150.095,279.500 147.826 C 279.260 145.182,279.946 142.516,280.933 142.258 C 281.335 142.153,281.664 141.828,281.664 141.536 C 281.664 141.244,282.131 140.820,282.703 140.594 C 283.275 140.369,283.998 140.042,284.310 139.868 C 285.058 139.453,288.469 139.418,288.469 139.827 M234.004 226.938 C 233.992 256.725,233.836 281.862,233.659 282.798 C 233.318 284.597,232.067 289.399,231.443 291.304 C 231.000 292.657,228.754 297.274,228.408 297.543 C 228.275 297.647,227.926 298.197,227.633 298.765 C 227.340 299.333,226.787 300.134,226.405 300.545 C 226.022 300.956,225.709 301.384,225.709 301.496 C 225.709 302.023,219.576 308.507,219.078 308.507 C 218.853 308.507,218.335 308.804,217.929 309.168 C 216.534 310.417,213.042 312.564,211.249 313.276 C 210.262 313.668,209.454 314.097,209.453 314.230 C 209.452 314.362,208.218 314.868,206.711 315.354 C 205.203 315.840,203.885 316.353,203.781 316.493 C 202.458 318.281,185.392 318.232,181.285 316.429 C 180.870 316.247,179.594 315.822,178.450 315.485 C 176.370 314.873,175.356 314.474,174.291 313.851 C 173.979 313.669,172.958 313.153,172.023 312.704 C 168.967 311.241,166.587 309.850,165.649 308.981 C 165.143 308.512,164.610 308.129,164.464 308.129 C 164.196 308.129,163.459 307.561,161.059 305.504 C 157.510 302.464,156.144 301.144,156.144 300.756 C 156.144 300.522,155.633 299.954,155.009 299.493 C 154.386 299.031,153.875 298.465,153.875 298.235 C 153.875 298.004,153.607 297.619,153.279 297.379 C 152.637 296.910,150.999 294.234,149.675 291.493 C 149.223 290.558,148.742 289.707,148.607 289.603 C 148.472 289.499,148.125 288.648,147.836 287.713 C 147.548 286.777,147.013 285.331,146.648 284.499 C 145.910 282.817,144.423 275.906,144.423 274.155 C 144.423 273.537,144.264 272.974,144.070 272.905 C 143.664 272.760,143.066 261.997,143.414 261.091 C 143.599 260.607,144.134 260.878,146.150 262.475 C 147.529 263.568,148.810 264.419,148.998 264.367 C 149.185 264.315,149.338 264.432,149.338 264.627 C 149.338 265.042,156.030 268.431,156.850 268.431 C 157.156 268.431,157.681 268.679,158.015 268.981 C 158.350 269.284,159.617 269.790,160.831 270.106 C 162.045 270.423,163.231 270.832,163.467 271.015 C 163.702 271.199,165.425 271.731,167.297 272.198 C 169.168 272.666,170.870 273.183,171.078 273.348 C 171.285 273.513,172.647 273.944,174.102 274.306 C 175.558 274.667,177.968 275.450,179.458 276.045 C 180.948 276.640,182.425 277.127,182.739 277.127 C 183.054 277.127,183.536 277.347,183.810 277.617 C 184.085 277.887,185.288 278.502,186.484 278.984 C 187.680 279.466,188.658 279.969,188.659 280.101 C 188.660 280.232,189.468 280.662,190.455 281.054 C 191.442 281.447,192.420 281.965,192.628 282.205 C 192.836 282.445,193.697 282.998,194.543 283.433 C 195.388 283.869,196.659 284.755,197.368 285.402 C 198.076 286.049,198.783 286.578,198.937 286.578 C 199.091 286.578,199.699 287.046,200.287 287.618 C 200.874 288.190,201.859 289.083,202.474 289.603 C 205.857 292.463,205.211 293.563,199.244 295.093 C 197.892 295.440,196.488 295.880,196.123 296.070 C 195.301 296.500,185.979 296.568,185.669 296.147 C 185.546 295.979,185.274 295.820,185.066 295.793 C 183.442 295.589,177.316 293.964,177.316 293.739 C 177.316 293.582,176.364 293.155,175.200 292.789 C 174.037 292.423,172.884 291.939,172.638 291.714 C 172.393 291.489,171.346 290.883,170.312 290.368 C 169.277 289.854,168.346 289.331,168.242 289.206 C 168.138 289.081,167.287 288.567,166.352 288.063 C 165.416 287.558,164.596 287.024,164.529 286.876 C 164.462 286.728,163.782 286.226,163.017 285.759 C 162.252 285.293,161.403 284.606,161.132 284.233 C 160.860 283.859,160.448 283.554,160.216 283.554 C 159.985 283.554,159.483 283.271,159.101 282.926 C 157.380 281.369,158.224 284.305,160.113 286.449 C 160.529 286.921,161.295 287.853,161.815 288.519 C 162.677 289.625,167.455 294.473,169.754 296.576 C 170.274 297.051,170.997 297.543,171.361 297.668 C 171.725 297.794,172.023 298.059,172.023 298.256 C 172.023 298.768,178.001 301.941,179.584 302.270 C 180.312 302.421,181.078 302.674,181.285 302.833 C 183.216 304.302,196.776 304.316,199.811 302.852 C 200.227 302.651,201.533 302.216,202.714 301.886 C 203.895 301.555,205.256 300.978,205.739 300.602 C 206.221 300.226,207.164 299.637,207.834 299.293 C 208.504 298.950,210.157 297.522,211.507 296.121 C 214.873 292.626,215.004 292.460,214.814 291.890 C 214.722 291.614,214.808 291.488,215.006 291.610 C 215.204 291.732,215.680 290.948,216.064 289.867 C 216.448 288.786,216.877 287.817,217.017 287.713 C 217.377 287.446,218.824 281.503,219.134 279.017 C 219.276 277.873,219.574 276.820,219.795 276.677 C 220.350 276.317,220.349 253.740,219.795 253.378 C 219.576 253.236,219.290 252.067,219.159 250.781 C 218.814 247.397,217.805 242.768,217.032 241.021 C 216.663 240.189,216.131 238.700,215.849 237.713 C 215.567 236.725,215.193 235.917,215.018 235.917 C 214.843 235.917,214.796 235.761,214.914 235.571 C 215.031 235.381,214.999 235.168,214.842 235.098 C 214.684 235.029,214.089 234.036,213.518 232.892 C 211.315 228.479,207.018 223.117,204.413 221.528 C 203.753 221.126,203.364 220.796,203.548 220.795 C 203.732 220.795,203.450 220.454,202.921 220.038 C 202.393 219.622,201.817 219.281,201.642 219.280 C 201.467 219.279,200.780 218.769,200.115 218.146 C 199.450 217.523,198.733 217.013,198.522 217.013 C 198.310 217.013,197.954 216.673,197.732 216.257 C 197.509 215.841,197.133 215.501,196.897 215.501 C 196.661 215.501,195.208 214.182,193.669 212.571 C 189.953 208.679,190.072 208.834,188.813 206.238 C 188.208 204.991,187.601 203.885,187.465 203.781 C 186.799 203.271,185.936 198.563,185.744 194.392 C 185.579 190.812,185.401 189.679,184.981 189.518 C 184.211 189.222,178.180 190.764,177.518 191.426 C 177.218 191.726,176.113 192.281,175.064 192.658 C 174.015 193.035,173.157 193.467,173.157 193.617 C 173.157 193.767,172.564 194.256,171.839 194.704 C 169.043 196.431,162.949 203.351,162.949 204.797 C 162.949 205.040,162.721 205.467,162.441 205.747 C 161.816 206.372,160.302 210.342,160.302 211.356 C 160.302 211.764,160.138 212.098,159.936 212.098 C 159.735 212.098,159.669 212.356,159.790 212.670 C 159.910 212.985,159.777 213.521,159.494 213.863 C 158.779 214.724,158.740 228.780,159.452 229.017 C 159.712 229.104,159.927 229.458,159.930 229.805 C 159.943 231.293,161.455 234.807,162.622 236.059 C 163.010 236.475,163.327 236.976,163.327 237.171 C 163.327 237.797,168.681 242.657,169.901 243.138 C 170.548 243.394,171.333 243.805,171.645 244.053 C 171.957 244.300,173.147 244.818,174.291 245.202 C 175.435 245.587,176.639 246.122,176.967 246.391 C 177.296 246.661,177.758 246.881,177.994 246.881 C 178.621 246.881,182.009 248.061,182.231 248.356 C 182.335 248.495,183.696 249.017,185.255 249.516 C 186.815 250.016,188.318 250.596,188.597 250.806 C 188.875 251.016,189.981 251.497,191.054 251.874 C 192.128 252.252,193.062 252.729,193.132 252.935 C 193.201 253.140,193.494 253.308,193.782 253.308 C 194.337 253.308,197.412 254.795,197.732 255.219 C 197.836 255.357,198.764 255.840,199.796 256.293 C 200.827 256.746,201.982 257.451,202.362 257.859 C 203.182 258.738,204.159 258.834,204.159 258.034 C 204.159 257.722,204.023 257.467,203.857 257.467 C 203.690 257.467,203.627 256.848,203.715 256.092 C 203.826 255.138,203.745 254.798,203.450 254.980 C 203.180 255.147,203.025 254.912,203.025 254.336 C 203.025 252.791,201.566 247.637,200.957 247.027 C 200.638 246.709,200.378 246.189,200.378 245.873 C 200.378 245.191,199.327 243.239,198.393 242.190 C 198.029 241.780,197.728 241.265,197.725 241.044 C 197.708 240.050,189.097 230.300,188.199 230.258 C 187.572 230.229,184.819 226.892,184.057 225.236 C 183.602 224.249,183.109 223.440,182.960 223.440 C 182.812 223.440,182.588 223.031,182.462 222.530 C 182.337 222.030,182.118 221.317,181.976 220.947 C 181.777 220.429,182.023 220.508,183.049 221.290 C 183.782 221.849,184.548 222.306,184.752 222.306 C 184.956 222.306,185.523 222.732,186.011 223.251 C 186.500 223.771,187.082 224.198,187.306 224.201 C 187.530 224.203,188.563 224.882,189.603 225.709 C 190.643 226.536,191.665 227.215,191.875 227.217 C 192.085 227.219,192.469 227.561,192.729 227.977 C 192.989 228.393,193.430 228.733,193.710 228.733 C 193.990 228.733,194.635 229.116,195.144 229.584 C 196.131 230.491,198.289 232.219,199.983 233.459 C 201.219 234.364,204.915 238.743,204.915 239.303 C 204.915 239.520,205.074 239.698,205.269 239.698 C 205.729 239.698,208.986 246.346,209.303 247.932 C 209.437 248.601,209.713 249.149,209.918 249.149 C 210.122 249.149,210.191 249.405,210.071 249.716 C 209.952 250.028,209.998 250.284,210.175 250.284 C 210.352 250.284,210.815 251.942,211.203 253.970 C 212.385 260.138,212.052 283.327,210.829 280.057 C 210.615 279.485,210.307 279.017,210.145 279.017 C 209.982 279.017,209.593 278.521,209.279 277.914 C 208.542 276.489,204.796 272.743,203.372 272.007 C 202.765 271.693,202.268 271.291,202.268 271.114 C 202.268 270.936,201.741 270.573,201.096 270.306 C 200.451 270.039,199.376 269.448,198.706 268.993 C 198.036 268.539,196.649 267.853,195.625 267.470 C 194.600 267.088,193.422 266.571,193.006 266.322 C 192.590 266.074,191.314 265.571,190.170 265.204 C 189.026 264.838,187.966 264.351,187.813 264.122 C 187.660 263.893,187.533 263.815,187.529 263.949 C 187.526 264.082,186.241 263.785,184.674 263.287 C 183.106 262.789,181.490 262.382,181.082 262.382 C 180.674 262.382,180.340 262.243,180.340 262.073 C 180.340 261.903,179.099 261.471,177.583 261.114 C 176.066 260.756,174.407 260.251,173.897 259.990 C 173.386 259.730,172.117 259.213,171.078 258.842 C 168.318 257.856,162.949 255.173,162.949 254.780 C 162.949 254.594,162.775 254.442,162.563 254.442 C 162.351 254.442,161.476 253.974,160.619 253.403 C 159.762 252.831,158.723 252.166,158.311 251.926 C 157.428 251.412,156.651 250.704,153.964 247.965 C 150.940 244.882,150.673 244.555,149.687 242.722 C 149.183 241.786,148.669 240.936,148.543 240.832 C 147.784 240.203,145.551 234.475,145.005 231.758 C 144.650 229.991,144.196 228.137,143.996 227.638 C 143.535 226.488,143.517 215.453,143.976 215.156 C 144.164 215.034,144.437 214.083,144.583 213.043 C 144.895 210.806,145.968 206.696,146.310 206.427 C 146.443 206.323,146.943 205.175,147.424 203.875 C 147.904 202.576,148.403 201.510,148.534 201.506 C 148.664 201.503,149.188 200.653,149.696 199.616 C 150.205 198.580,150.758 197.732,150.925 197.732 C 151.092 197.732,151.229 197.476,151.229 197.164 C 151.229 196.853,151.399 196.597,151.607 196.597 C 151.815 196.597,151.985 196.374,151.985 196.102 C 151.985 195.829,152.367 195.196,152.833 194.695 C 153.300 194.194,154.050 193.242,154.499 192.580 C 156.353 189.848,160.859 185.365,163.850 183.278 C 164.498 182.826,165.113 182.346,165.217 182.211 C 165.561 181.765,168.778 179.810,170.699 178.880 C 171.739 178.376,172.675 177.861,172.779 177.734 C 173.001 177.464,175.063 176.660,176.938 176.112 C 177.665 175.899,178.446 175.574,178.673 175.390 C 179.186 174.973,186.081 173.535,187.565 173.535 C 188.166 173.535,188.658 173.365,188.658 173.157 C 188.658 172.909,196.471 172.779,211.342 172.779 L 234.026 172.779 234.004 226.938 M262.760 173.157 C 262.760 173.365,263.143 173.535,263.611 173.535 C 264.773 173.536,268.180 174.862,268.354 175.382 C 268.431 175.614,268.717 175.803,268.990 175.803 C 269.820 175.803,272.822 179.506,273.368 181.203 C 273.650 182.080,274.059 182.919,274.275 183.067 C 274.798 183.426,274.796 190.489,274.273 190.845 C 274.055 190.994,273.661 191.853,273.397 192.754 C 272.902 194.450,268.599 199.244,267.573 199.244 C 267.301 199.244,266.405 199.603,265.581 200.041 C 263.185 201.317,258.683 201.254,255.850 199.905 C 254.648 199.334,253.560 198.866,253.431 198.866 C 252.977 198.866,249.905 196.163,249.905 195.763 C 249.905 195.540,249.651 195.169,249.340 194.938 C 248.620 194.404,247.259 190.549,247.259 189.045 C 247.259 188.416,247.089 187.902,246.881 187.902 C 246.673 187.902,246.503 187.476,246.503 186.957 C 246.503 186.437,246.649 186.011,246.828 186.011 C 247.007 186.011,247.251 185.191,247.370 184.188 C 247.606 182.195,248.674 179.577,249.454 179.081 C 249.725 178.908,250.105 178.352,250.298 177.846 C 250.490 177.339,251.076 176.761,251.600 176.562 C 252.124 176.363,252.552 176.034,252.552 175.830 C 252.552 175.370,255.541 174.025,257.298 173.695 C 258.019 173.560,258.703 173.298,258.817 173.114 C 259.103 172.650,262.760 172.690,262.760 173.157 M221.060 179.894 C 221.279 181.529,220.083 184.634,219.086 185.016 C 218.759 185.142,218.242 185.842,217.936 186.573 C 217.631 187.304,217.235 187.902,217.055 187.902 C 216.876 187.902,216.628 188.412,216.503 189.036 C 216.378 189.660,216.057 190.170,215.789 190.170 C 215.521 190.170,215.107 190.553,214.868 191.021 C 213.498 193.703,213.133 194.677,212.953 196.133 C 212.844 197.022,212.607 197.840,212.426 197.952 C 212.025 198.199,211.986 203.166,212.382 203.557 C 212.538 203.710,212.836 204.959,213.043 206.331 C 213.631 210.208,214.367 209.859,214.367 205.703 C 214.367 203.739,214.524 202.268,214.733 202.268 C 214.934 202.268,215.013 202.045,214.908 201.771 C 214.803 201.497,214.936 200.851,215.204 200.336 C 215.619 199.535,215.690 200.286,215.690 205.464 C 215.690 211.824,215.931 213.611,216.788 213.611 C 217.131 213.611,217.392 212.904,217.567 211.504 C 217.965 208.321,220.331 204.159,221.743 204.159 C 222.891 204.159,226.357 198.893,225.415 198.579 C 224.961 198.427,225.827 196.709,226.645 196.139 C 227.381 195.625,227.136 186.783,226.371 186.223 C 226.007 185.957,225.696 185.417,225.680 185.024 C 225.593 182.863,222.700 178.450,221.370 178.450 C 221.004 178.450,220.919 178.846,221.060 179.894 M216.904 197.093 C 216.444 197.989,216.021 198.615,215.965 198.483 C 215.785 198.069,217.007 195.463,217.381 195.463 C 217.578 195.463,217.363 196.196,216.904 197.093 M195.595 197.178 C 195.398 197.689,195.476 198.976,195.957 203.191 C 196.026 203.802,196.284 204.369,196.529 204.451 C 196.775 204.533,196.975 204.782,196.975 205.005 C 196.975 205.868,198.930 207.914,200.188 208.369 C 200.915 208.631,201.600 209.133,201.711 209.482 C 201.925 210.157,203.417 210.586,205.551 210.586 C 207.800 210.586,210.092 211.369,211.187 212.512 C 212.927 214.328,214.076 213.471,212.644 211.426 C 212.111 210.666,212.111 210.586,212.644 210.586 C 213.381 210.586,213.437 208.954,212.724 208.241 C 212.444 207.961,211.921 207.113,211.562 206.356 C 210.149 203.380,206.589 200.756,203.962 200.756 C 203.446 200.756,203.025 200.607,203.025 200.424 C 203.025 200.029,201.464 199.392,199.622 199.034 C 198.310 198.780,196.975 197.749,196.975 196.991 C 196.975 196.376,195.844 196.529,195.595 197.178 M210.779 207.810 C 211.382 208.730,211.377 208.741,210.580 208.315 C 210.132 208.075,209.862 207.781,209.981 207.663 C 210.099 207.544,209.901 207.217,209.540 206.936 C 208.945 206.473,208.944 206.446,209.524 206.647 C 209.875 206.769,210.440 207.292,210.779 207.810 M256.409 210.601 C 259.352 211.418,261.059 213.643,261.059 216.665 C 261.059 218.604,260.907 219.405,260.491 219.668 C 260.180 219.865,260.084 220.029,260.279 220.032 C 260.932 220.043,258.530 222.242,257.615 222.472 C 257.117 222.597,256.711 222.866,256.711 223.070 C 256.711 223.572,253.039 223.544,252.727 223.039 C 252.590 222.818,252.075 222.484,251.583 222.297 C 249.643 221.560,248.298 218.972,248.500 216.365 C 248.783 212.711,250.454 211.094,254.820 210.249 C 254.924 210.229,255.639 210.387,256.409 210.601 " stroke="none" fill="#dcf4e4" fill-rule="evenodd"></path><path id="path1" d="M110.494 141.431 C 107.445 144.842,109.233 149.338,113.639 149.338 C 118.080 149.338,120.036 144.526,116.837 141.468 C 115.013 139.725,112.035 139.707,110.494 141.431 M284.091 142.691 C 280.319 144.334,281.189 150.680,285.293 151.450 C 286.711 151.716,289.603 151.068,289.603 150.484 C 289.603 150.300,289.901 149.850,290.265 149.486 C 291.180 148.570,291.165 144.882,290.244 144.366 C 289.891 144.169,289.603 143.769,289.603 143.477 C 289.603 142.375,285.998 141.861,284.091 142.691 " stroke="none" fill="#fcfcfc" fill-rule="evenodd"></path><path id="path2" d="M349.830 230.624 C 349.830 231.767,349.901 232.235,349.987 231.664 C 350.074 231.092,350.074 230.156,349.987 229.584 C 349.901 229.012,349.830 229.480,349.830 230.624 M50.014 232.325 C 50.016 233.365,50.090 233.745,50.177 233.171 C 50.264 232.596,50.261 231.745,50.172 231.280 C 50.082 230.815,50.011 231.285,50.014 232.325 " stroke="none" fill="#e0f4e4" fill-rule="evenodd"></path><path id="path3" d="M219.385 251.796 C 219.385 252.732,219.458 253.114,219.548 252.647 C 219.639 252.179,219.639 251.413,219.548 250.945 C 219.458 250.477,219.385 250.860,219.385 251.796 M219.369 277.883 C 219.369 278.611,219.447 278.908,219.542 278.544 C 219.637 278.181,219.637 277.585,219.542 277.221 C 219.447 276.857,219.369 277.155,219.369 277.883 " stroke="none" fill="#e4f8f4" fill-rule="evenodd"></path><path id="path4" d="" stroke="none" fill="#e8f8e4" fill-rule="evenodd"></path></g></svg>